<svg width="17" height="17" viewBox="0 0 17 17" fill="none" xmlns="http://www.w3.org/2000/svg">
<path d="M6.46372 2.16375C6.99182 0.538422 9.29122 0.538423 9.81933 2.16375L10.518 4.31398C10.7542 5.04085 11.4315 5.53298 12.1958 5.53298H14.4567C16.1656 5.53298 16.8762 7.71984 15.4936 8.72435L13.6645 10.0533C13.0462 10.5025 12.7875 11.2988 13.0236 12.0256L13.7223 14.1759C14.2504 15.8012 12.3901 17.1528 11.0076 16.1483L9.17846 14.8193C8.56015 14.3701 7.72289 14.3701 7.10458 14.8193L5.27549 16.1483C3.8929 17.1528 2.03264 15.8012 2.56074 14.1759L3.25939 12.0256C3.49557 11.2988 3.23684 10.5025 2.61853 10.0533L0.789435 8.72435C-0.593153 7.71984 0.117403 5.53298 1.82638 5.53298H4.08726C4.85154 5.53298 5.52889 5.04085 5.76507 4.31398L6.46372 2.16375Z" fill="white"/>
</svg>
