<svg width="17" height="17" viewBox="0 0 17 17" fill="none" xmlns="http://www.w3.org/2000/svg">
<path d="M6.62412 1.79742C7.15222 0.172089 9.45162 0.17209 9.97973 1.79742L10.6784 3.94765C10.9146 4.67452 11.5919 5.16664 12.3562 5.16664H14.6171C16.326 5.16664 17.0366 7.35351 15.654 8.35802L13.8249 9.68693C13.2066 10.1362 12.9479 10.9324 13.184 11.6593L13.8827 13.8095C14.4108 15.4349 12.5505 16.7864 11.168 15.7819L9.33886 14.453C8.72055 14.0038 7.88329 14.0038 7.26498 14.453L5.43589 15.7819C4.0533 16.7864 2.19304 15.4349 2.72114 13.8095L3.41979 11.6593C3.65597 10.9324 3.39724 10.1362 2.77893 9.68693L0.949835 8.35802C-0.432752 7.35351 0.277803 5.16664 1.98678 5.16664H4.24766C5.01194 5.16664 5.68929 4.67452 5.92547 3.94765L6.62412 1.79742Z" fill="#FF8A00"/>
</svg>
